<?xml version="1.0" standalone="no"?>
<!DOCTYPE svg PUBLIC "-//W3C//DTD SVG 20010904//EN"
 "http://www.w3.org/TR/2001/REC-SVG-20010904/DTD/svg10.dtd">
<svg version="1.0" xmlns="http://www.w3.org/2000/svg"
 width="400.000000pt" height="400.000000pt" viewBox="0 0 400.000000 400.000000"
 preserveAspectRatio="xMidYMid meet">

<g transform="translate(0.000000,400.000000) scale(0.100000,-0.100000)"
fill="#000000" stroke="none">
<path d="M2253 3766 c-17 -8 -39 -29 -48 -46 -15 -29 -15 -42 0 -168 25 -223
66 -351 115 -367 40 -13 64 29 79 139 13 94 14 306 1 360 -17 74 -82 111 -147
82z m81 -71 c6 -17 -2 -45 -14 -45 -5 0 -11 9 -15 20 -11 33 16 57 29 25z"/>
<path d="M2830 3663 c-44 -16 -58 -41 -115 -206 -48 -135 -69 -255 -55 -305
16 -62 46 -64 102 -5 61 64 208 360 208 419 0 64 -80 119 -140 97z m80 -87 c0
-16 -30 -50 -37 -42 -3 3 -3 17 1 31 7 26 36 35 36 11z"/>
<path d="M3183 3191 c-110 -85 -238 -217 -258 -265 -16 -38 -8 -75 18 -77 54
-5 110 17 236 93 238 142 279 199 204 288 -20 25 -32 30 -68 30 -38 0 -53 -8
-132 -69z m177 -34 c0 -15 -44 -39 -54 -30 -8 9 24 43 41 43 7 0 13 -6 13 -13z"/>
<path d="M1782 3198 c-26 -34 -43 -84 -56 -170 -18 -114 -31 -378 -19 -379 4
-1 24 -2 43 -4 19 -1 77 -7 129 -14 77 -11 95 -11 102 0 4 7 5 17 3 21 -3 4 0
8 5 8 6 0 11 6 11 13 0 7 18 21 41 31 49 22 46 30 -7 18 -54 -12 -98 2 -113
34 -14 31 -41 208 -41 272 0 30 -4 42 -15 42 -8 0 -17 14 -21 35 -3 19 -10 32
-15 29 -5 -3 -9 4 -9 14 0 11 -7 25 -15 32 -8 7 -12 16 -9 21 8 14 -2 11 -14
-3z"/>
<path d="M2285 3115 c-51 -50 -15 -135 58 -135 45 0 77 34 77 82 0 70 -86 103
-135 53z m85 -25 c0 -5 -4 -10 -9 -10 -6 0 -13 5 -16 10 -3 6 1 10 9 10 9 0
16 -4 16 -10z"/>
<path d="M2611 3068 c-55 -20 -69 -91 -26 -133 28 -29 54 -31 94 -10 87 44 23
177 -68 143z m69 -59 c0 -5 -4 -9 -10 -9 -5 0 -10 7 -10 16 0 8 5 12 10 9 6
-3 10 -10 10 -16z"/>
<path d="M1152 2832 c-55 -99 -88 -371 -76 -627 l6 -130 -50 -155 c-95 -293
-122 -424 -122 -600 0 -127 13 -192 55 -268 46 -85 112 -128 255 -166 77 -21
204 -77 220 -97 9 -12 164 -87 213 -103 129 -43 264 -38 376 15 60 27 135 80
171 120 8 9 26 20 40 24 33 10 90 44 117 70 l21 20 -24 12 c-14 7 -22 7 -21 1
4 -21 -174 -8 -255 19 -43 14 -78 30 -78 35 0 5 -4 7 -9 4 -5 -4 -11 -3 -13 2
-6 15 -265 152 -287 152 -6 0 -11 4 -11 8 0 4 -15 9 -32 10 -59 4 -168 45
-168 62 0 5 -13 16 -30 25 -16 9 -30 21 -30 28 0 6 -14 26 -30 44 -17 18 -30
43 -30 57 0 15 -4 26 -8 26 -10 0 -12 14 -16 165 -6 182 27 394 79 510 8 17
16 42 18 55 3 14 10 36 15 51 6 15 7 43 2 69 -4 24 -6 48 -3 54 2 6 27 28 54
49 27 20 49 42 49 48 0 5 -15 -1 -32 -15 -43 -32 -103 -56 -140 -56 -25 0 -32
6 -48 43 -19 42 -50 240 -50 318 0 21 -4 39 -10 39 -5 0 -10 5 -10 10 0 13
-58 93 -74 102 -8 5 -20 -6 -34 -30z"/>
<path d="M2766 2845 c-53 -50 -17 -135 58 -135 71 0 103 84 51 135 -31 32 -74
32 -109 0z m104 -56 c0 -5 -4 -9 -10 -9 -5 0 -10 7 -10 16 0 8 5 12 10 9 6 -3
10 -10 10 -16z"/>
<path d="M2347 2453 c-13 -12 -7 -50 11 -65 29 -27 141 -51 127 -28 -3 6 -13
10 -22 10 -31 0 -82 32 -95 61 -8 16 -18 26 -21 22z"/>
<path d="M1670 2159 c-14 -52 -5 -93 25 -113 28 -18 61 -21 70 -6 3 6 0 10 -9
10 -19 0 -56 78 -56 118 0 45 -17 40 -30 -9z"/>
<path d="M2430 2136 c0 -20 -17 -29 -51 -28 -38 1 -44 -13 -19 -38 16 -16 33
-20 83 -20 66 0 103 13 121 43 9 15 7 22 -13 38 -29 24 -121 28 -121 5z"/>
<path d="M1990 2020 c0 -20 -7 -23 -59 -24 -35 -1 -37 -22 -5 -43 35 -23 127
-23 172 1 68 35 28 86 -69 86 -32 0 -39 -3 -39 -20z"/>
<path d="M2570 2010 c-69 -25 -130 -85 -130 -129 0 -60 89 -125 209 -153 73
-17 92 -4 135 85 47 96 50 165 10 196 -36 28 -146 28 -224 1z"/>
<path d="M1380 1758 c1 -75 42 -187 101 -275 89 -131 227 -204 459 -245 99
-17 428 -17 545 1 159 23 311 85 260 105 -9 3 -14 2 -11 -3 7 -11 -100 -20
-349 -27 -169 -5 -236 -3 -345 10 -297 38 -434 105 -553 268 -30 41 -87 156
-87 175 0 6 -4 15 -10 18 -6 4 -10 -7 -10 -27z"/>
<path d="M456 792 c-3 -5 1 -9 9 -9 8 0 12 4 9 9 -3 4 -7 8 -9 8 -2 0 -6 -4
-9 -8z"/>
<path d="M526 712 c-3 -5 1 -9 9 -9 8 0 12 4 9 9 -3 4 -7 8 -9 8 -2 0 -6 -4
-9 -8z"/>
<path d="M783 473 c4 -3 1 -13 -6 -22 -11 -14 -10 -14 5 -2 16 12 16 31 1 31
-4 0 -3 -3 0 -7z"/>
</g>
</svg>
